#N canvas 459 -700 684 622 12;
#X obj 38 507 catch~ sum;
#X obj 317 335 s frequency;
#X obj 432 332 s duration;
#X floatatom 431 274 0 0 0 0 - - - 0;
#X obj 431 301 * 100;
#X obj 317 302 mtof;
#X floatatom 317 275 0 0 0 0 - - - 0;
#X text 469 273 duration in tenths;
#X text 517 291 of a second;
#X text 355 273 pitch;
#X text 433 606 updated for Pd version 0.37;
#X obj 38 546 output~;
#X text 26 37 This patch demonstrates using an abstraction \, "partial" \, to make a simple additive synthesis instrument originally from Jean-Claude Risset.;
#X obj 323 408 bng 25 250 50 0 empty empty empty 0 -6 0 8 #fcfcfc #000000 #000000;
#X text 356 407 <-- click to play a note;
#X obj 323 457 s trigger;
#X obj 317 224 r trigger;
#X msg 431 249 40;
#X floatatom 262 334 5 0 0 0 - - - 0;
#X msg 317 249 60;
#X obj 38 170 partial 1 1;
#X obj 38 195 partial 2.13 2;
#X obj 38 220 partial 3.32 3;
#X obj 38 245 partial 4.19 4;
#X obj 38 270 partial 1.72 5;
#X obj 38 295 partial 2.51 6;
#X obj 38 320 partial 1.43 7;
#X obj 38 345 partial 0.95 8;
#X obj 38 370 partial 0.82 9;
#X obj 38 395 partial 1.08 10;
#X obj 38 420 partial 1.26 11;
#X obj 38 445 partial 0.66 12;
#X obj 38 470 partial 0.42 13;
#X text 26 87 Partial takes as arguments a relative frequency and a relative amplitude. You set absolute duration and pitch using the controls below. Hit the trigger to make sound.;
#X text 82 7 ADDITIVE SYNTHESIS [trumpet];
#X connect 0 0 11 0;
#X connect 0 0 11 1;
#X connect 3 0 4 0;
#X connect 4 0 2 0;
#X connect 5 0 1 0;
#X connect 5 0 18 0;
#X connect 6 0 5 0;
#X connect 13 0 15 0;
#X connect 16 0 19 0;
#X connect 16 0 17 0;
#X connect 17 0 3 0;
#X connect 19 0 6 0;
