#N canvas 800 -658 880 448 12;
#X text 17 88 trigger;
#X text 33 175 relative frequency;
#X obj 17 341 *~;
#X obj 17 113 r trigger;
#X obj 227 224 float \$1;
#X obj 498 168 r duration;
#X obj 39 226 r frequency;
#X obj 227 158 t b b;
#X obj 17 368 throw~ sum;
#X obj 17 140 bng 15 250 50 0 empty empty empty 0 -6 0 8 #fcfcfc #000000 #000000;
#X obj 227 258 * 0.1;
#X obj 17 279 + \$4;
#X text 286 260 normalize to 0.1;
#X text 240 189 attack;
#X obj 17 252 *;
#X obj 17 314 osc~;
#X text 49 252 times global freq.;
#X text 60 279 plus detune;
#X text 20 396 add to global;
#X text 19 415 summing bus;
#X text 25 4 partial -- sinusoidal partial for additive synthesis;
#X text 458 35 arguments:;
#X obj 480 204 del;
#X floatatom 481 313 5 0 0 0 - - - 0;
#X floatatom 481 285 5 0 0 0 - - - 0;
#X obj 455 242 bng 15 250 50 0 empty empty empty 0 -6 0 8 #fcfcfc #000000 #000000;
#X floatatom 227 294 5 0 0 0 - - - 0;
#X obj 17 200 float \$2;
#X text 21 45 This patch is used as an abstraction in the additive synthesis example.;
#X text 432 60 1 amplitude \; 2 relative frequency \;;
#X text 308 217 get amplitude from argument 1, f 15;
#X text 477 138 release;
#X connect 2 0 8 0;
#X connect 3 0 9 0;
#X connect 4 0 10 0;
#X connect 5 0 22 1;
#X connect 6 0 14 1;
#X connect 7 0 4 0;
#X connect 7 1 22 0;
#X connect 9 0 7 0;
#X connect 9 0 27 0;
#X connect 10 0 2 1;
#X connect 10 0 26 0;
#X connect 11 0 15 0;
#X connect 14 0 11 0;
#X connect 15 0 2 0;
#X connect 22 0 24 0;
#X connect 22 0 25 0;
#X connect 24 0 23 0;
#X connect 24 0 2 1;
#X connect 27 0 14 0;
