#N canvas 890 168 450 300 12;
#X obj 242 42 notein;
#X obj 202 81 dbtorms;
#X obj 15 43 hsl 162 19 0 127 0 0 empty empty empty -2 -10 0 12 #fcfcfc #000000 #000000 0 1;
#X obj 134 80 mtof;
#X floatatom 79 232 5 0 0 0 - - - 0;
#X obj 352 9 vsl 19 162 0 127 0 0 empty empty empty 0 -9 0 12 #fcfcfc #000000 #000000 0 1;
#X obj 134 119 osc~;
#X obj 134 159 *~;
#X obj 134 202 dac~;
#X floatatom 202 232 5 0 0 0 - - - 0;
#X obj 280 80 / 127;
#X floatatom 280 233 5 0 0 0 - - - 0;
#X floatatom 352 233 5 0 0 0 - - - 0;
#X obj 279 153 * 100;
#X obj 352 196 - 100;
#X connect 0 0 3 0;
#X connect 0 1 10 0;
#X connect 1 0 9 0;
#X connect 1 0 7 1;
#X connect 2 0 3 0;
#X connect 3 0 4 0;
#X connect 3 0 6 0;
#X connect 5 0 10 0;
#X connect 6 0 7 0;
#X connect 7 0 8 0;
#X connect 10 0 13 0;
#X connect 13 0 11 0;
#X connect 13 0 1 0;
#X connect 13 0 14 0;
#X connect 14 0 12 0;
